<?xml version="1.0" standalone="no"?>
<!DOCTYPE svg PUBLIC "-//W3C//DTD SVG 20010904//EN"
 "http://www.w3.org/TR/2001/REC-SVG-20010904/DTD/svg10.dtd">
<svg version="1.0" xmlns="http://www.w3.org/2000/svg"
 width="1280.000000pt" height="517.000000pt" viewBox="0 0 1280.000000 517.000000"
 preserveAspectRatio="xMidYMid meet">
<metadata>
Created by potrace 1.16, written by Peter Selinger 2001-2019
</metadata>
<g transform="translate(0.000000,517.000000) scale(0.100000,-0.100000)"
fill="#000000" stroke="none">
<path d="M4687 4680 c-828 -37 -1140 -90 -1687 -287 -404 -146 -707 -271
-1073 -442 -120 -56 -268 -121 -330 -145 -357 -138 -848 -222 -1257 -214
l-175 3 -6 -45 c-3 -25 -17 -67 -30 -95 -33 -72 -31 -170 9 -360 30 -146 31
-161 41 -535 13 -491 35 -683 97 -868 70 -209 200 -332 416 -392 102 -28 282
-48 515 -56 191 -7 202 -6 276 17 l78 24 -5 35 c-15 93 -18 292 -6 371 67 462
437 832 899 899 124 19 313 8 431 -25 445 -121 763 -513 787 -970 11 -207 -28
-374 -135 -587 -2 -5 1427 -8 3176 -8 l3180 0 -34 68 c-95 189 -132 413 -101
617 35 221 124 407 273 564 370 393 963 442 1396 116 206 -155 345 -381 394
-642 12 -66 15 -122 11 -228 -6 -163 -26 -249 -92 -399 -42 -94 -43 -100 -29
-128 8 -16 29 -38 47 -48 30 -19 53 -20 442 -20 370 0 413 2 445 18 25 12 36
25 38 44 2 16 -13 101 -34 190 -26 118 -38 195 -41 278 -5 113 -4 119 46 311
50 194 51 199 51 347 0 165 -13 284 -37 345 -37 92 -257 232 -588 374 -583
251 -981 333 -2320 478 -231 25 -433 50 -450 55 -39 11 -105 18 -305 31 -188
12 -285 29 -385 68 -44 17 -180 100 -365 223 -475 314 -1022 652 -1169 721
-114 54 -397 148 -591 196 -171 43 -383 72 -680 91 -220 14 -888 20 -1123 10z
m392 -343 c87 -19 101 -39 137 -189 l6 -28 -489 0 c-269 0 -708 3 -974 7
l-484 7 90 28 c290 92 655 154 1130 192 113 9 521 -3 584 -17z m726 -22 c373
-35 696 -83 850 -125 119 -33 363 -135 352 -147 -4 -4 -1298 152 -1343 162
-14 3 -25 20 -37 58 -9 30 -17 57 -17 60 0 10 13 9 195 -8z m6280 -1806 c222
-33 423 -85 458 -118 45 -43 38 -181 -13 -281 -20 -40 -23 -41 -58 -36 -20 3
-131 13 -247 22 l-210 17 -127 121 c-71 66 -128 126 -128 132 0 7 -32 42 -71
77 l-72 66 34 5 c99 17 304 14 434 -5z"/>
<path d="M2390 2541 c-402 -87 -709 -398 -792 -801 -16 -78 -19 -121 -15 -240
6 -177 26 -261 102 -415 131 -268 366 -461 660 -542 89 -25 117 -28 255 -27
127 0 171 4 244 22 373 94 660 378 757 750 26 100 35 284 20 393 -50 338 -259
625 -566 774 -158 77 -237 96 -425 101 -125 3 -172 0 -240 -15z m383 -247
c117 -25 261 -101 347 -182 l74 -68 -290 -198 -289 -198 -70 75 c-38 41 -147
155 -242 254 l-172 179 67 41 c92 55 165 83 277 107 52 10 232 5 298 -10z
m-468 -473 c181 -264 187 -274 169 -291 -11 -9 -124 -118 -253 -240 l-234
-223 -20 24 c-36 43 -105 202 -122 282 -27 123 -18 296 22 409 35 101 101 210
172 288 44 47 53 52 65 40 8 -8 98 -138 201 -289z m973 98 c87 -151 122 -350
92 -515 -27 -150 -113 -314 -213 -412 l-44 -44 -55 79 c-30 43 -119 172 -198
287 l-142 208 53 54 c162 160 445 423 454 421 6 -2 29 -37 53 -78z m-447 -745
c129 -136 235 -250 237 -254 4 -11 -106 -76 -175 -105 -282 -114 -629 -42
-838 175 -33 34 -37 43 -25 50 8 5 137 92 285 194 149 102 273 186 276 186 3
0 111 -111 240 -246z"/>
<path d="M10624 2525 c-230 -41 -410 -138 -566 -304 -324 -345 -364 -856 -98
-1252 55 -81 177 -203 255 -256 350 -236 784 -239 1129 -9 153 102 271 239
351 408 70 148 90 243 90 428 0 170 -16 254 -75 392 -178 417 -646 673 -1086
593z m351 -235 c209 -53 387 -191 494 -382 l32 -56 -33 -11 c-18 -5 -163 -51
-323 -102 -159 -50 -295 -94 -302 -96 -11 -5 -329 614 -320 623 2 2 37 13 78
23 103 28 269 28 374 1z m-397 -376 c57 -180 100 -330 95 -335 -22 -22 -606
-310 -613 -303 -19 20 -42 126 -47 219 -13 232 77 453 250 611 60 55 179 134
202 134 5 0 56 -147 113 -326z m982 -293 c20 -150 -19 -334 -102 -476 -55 -93
-193 -231 -281 -280 -37 -20 -70 -35 -73 -32 -12 12 -210 653 -204 660 4 5
144 77 311 162 l304 154 17 -54 c9 -30 22 -90 28 -134z m-657 -501 l157 -310
-27 -11 c-57 -22 -161 -39 -241 -39 -202 0 -384 72 -538 213 -57 52 -177 222
-171 241 3 9 622 214 652 215 6 0 81 -139 168 -309z"/>
</g>
</svg>
